<svg width="400" height="300" viewBox="0 0 400 300" fill="none" xmlns="http://www.w3.org/2000/svg">
<g clip-path="url(#clip0)">
<g filter="url(#filter0_d)">
<path fill-rule="evenodd" clip-rule="evenodd" d="M160.23 222.936L233.564 180.601C244.737 174.15 262.851 174.15 274.024 180.601L347.358 222.936C358.531 229.387 358.531 239.844 347.358 246.294L274.024 288.63C262.851 295.08 244.737 295.08 233.564 288.63L160.23 246.294C149.057 239.844 149.057 229.387 160.23 222.936Z" fill="url(#paint0_linear)" fill-opacity="0.44"/>
<path d="M286.11 236.116C286.63 235.816 287.247 235.577 287.927 235.415C288.607 235.252 289.336 235.168 290.071 235.168C290.807 235.168 291.536 235.252 292.216 235.415C292.895 235.577 293.513 235.816 294.033 236.116L309.882 245.266C310.402 245.566 310.815 245.922 311.097 246.315C311.379 246.707 311.524 247.128 311.524 247.553C311.524 247.978 311.378 248.398 311.097 248.791C310.815 249.183 310.402 249.54 309.882 249.84L304.599 252.89C304.079 253.19 303.461 253.428 302.781 253.591C302.101 253.754 301.373 253.837 300.637 253.837C299.901 253.837 299.173 253.754 298.493 253.591C297.813 253.428 297.195 253.19 296.675 252.89L280.827 243.74C280.306 243.44 279.893 243.083 279.612 242.691C279.33 242.299 279.185 241.878 279.185 241.453C279.185 241.028 279.33 240.608 279.612 240.215C279.893 239.823 280.306 239.466 280.827 239.166L286.11 236.116ZM262.338 243.74C262.858 243.44 263.475 243.201 264.155 243.039C264.835 242.876 265.564 242.792 266.299 242.792C267.035 242.792 267.764 242.876 268.444 243.039C269.123 243.201 269.741 243.44 270.261 243.74L291.392 255.939C291.913 256.24 292.326 256.596 292.608 256.989C292.889 257.381 293.034 257.802 293.034 258.226C293.034 258.651 292.889 259.072 292.608 259.464C292.326 259.857 291.913 260.213 291.392 260.514L286.11 263.563C285.59 263.864 284.972 264.102 284.292 264.265C283.612 264.428 282.884 264.511 282.148 264.511C281.412 264.511 280.683 264.428 280.004 264.265C279.324 264.102 278.706 263.864 278.186 263.563L257.055 251.364C256.534 251.064 256.121 250.707 255.84 250.315C255.558 249.923 255.413 249.502 255.413 249.077C255.413 248.652 255.558 248.232 255.84 247.839C256.121 247.447 256.534 247.09 257.055 246.79L262.338 243.74ZM294.035 219.342C294.555 219.042 295.172 218.803 295.852 218.641C296.532 218.478 297.261 218.394 297.996 218.394C298.732 218.394 299.461 218.478 300.141 218.641C300.82 218.803 301.438 219.042 301.958 219.342L328.372 234.591C328.893 234.891 329.306 235.248 329.587 235.64C329.869 236.033 330.014 236.453 330.014 236.878C330.014 237.303 329.869 237.723 329.587 238.116C329.306 238.508 328.893 238.865 328.372 239.165L323.089 242.215C322.569 242.515 321.952 242.754 321.272 242.916C320.592 243.079 319.864 243.163 319.128 243.163C318.392 243.163 317.663 243.079 316.983 242.916C316.304 242.754 315.686 242.515 315.166 242.215L288.752 226.966C288.231 226.666 287.818 226.309 287.537 225.917C287.255 225.524 287.11 225.104 287.11 224.679C287.11 224.254 287.255 223.833 287.537 223.441C287.818 223.049 288.231 222.692 288.752 222.392L294.035 219.342ZM274.065 213.374L270.969 215.187C269.882 215.823 268.107 215.831 267.005 215.203C265.903 214.576 265.891 213.552 266.979 212.916L274.869 208.296C275.262 208.064 275.767 207.906 276.317 207.843C276.868 207.779 277.439 207.813 277.956 207.94C278.257 208.01 278.574 208.129 278.848 208.287L286.806 212.881C287.9 213.513 287.9 214.537 286.806 215.169C285.712 215.801 283.937 215.801 282.843 215.169L279.667 213.336L279.669 233.829C279.669 234.498 278.955 235.098 277.872 235.338L243.534 242.962C242.089 243.283 240.469 242.866 239.913 242.034C239.358 241.202 240.079 240.265 241.523 239.943L274.065 232.718L274.065 213.374Z" fill="#F4FFFE"/>
</g>
<path fill-rule="evenodd" clip-rule="evenodd" d="M235.244 261.732C235.937 261.732 236.498 262.071 236.498 262.488C236.498 262.906 235.937 263.244 235.244 263.244C234.552 263.244 233.991 262.906 233.991 262.488C233.991 262.071 234.552 261.732 235.244 261.732Z" fill="#00E4FF"/>
<path opacity="0.4" fill-rule="evenodd" clip-rule="evenodd" d="M204.001 141.453V183.38C204.001 183.807 204.331 184.154 204.739 184.154C204.869 184.154 204.996 184.118 205.109 184.05L251.508 155.964C251.965 155.687 252.246 155.176 252.246 154.623V112.696C252.246 112.269 251.916 111.922 251.508 111.922C251.378 111.922 251.251 111.957 251.138 112.026L204.739 140.112C204.282 140.388 204 140.9 204 141.453L204.001 141.453Z" fill="url(#paint1_linear)"/>
<g opacity="0.8">
<g opacity="0.8" filter="url(#filter1_d)">
<path d="M206.747 143.339V185.266C206.747 185.694 207.077 186.041 207.485 186.041C207.615 186.041 207.742 186.005 207.855 185.937L254.254 157.85C254.711 157.574 254.992 157.063 254.992 156.509V114.583C254.992 114.155 254.662 113.809 254.254 113.809C254.124 113.809 253.996 113.844 253.884 113.913L207.485 141.999C207.027 142.275 206.746 142.787 206.746 143.34L206.747 143.339Z" fill="#B9EBFF"/>
</g>
<path opacity="0.8" d="M206.747 143.339V185.266C206.747 185.694 207.077 186.041 207.485 186.041C207.615 186.041 207.742 186.005 207.855 185.937L254.254 157.85C254.711 157.574 254.992 157.063 254.992 156.509V114.583C254.992 114.155 254.662 113.809 254.254 113.809C254.124 113.809 253.996 113.844 253.884 113.913L207.485 141.999C207.027 142.275 206.746 142.787 206.746 143.34L206.747 143.339Z" fill="url(#paint2_linear)"/>
</g>
<path d="M252.636 118.799V147.239L209.359 172.767V144.327L252.637 118.799H252.636ZM209.511 144.449V149.88L215.519 146.336V140.905L209.511 144.448V144.449ZM209.511 150.092V155.524L215.519 151.98V146.549L209.511 150.092ZM215.672 140.815V146.247L221.68 142.703V137.271L215.672 140.815ZM215.672 146.458V151.89L221.68 148.346V142.914L215.672 146.458V146.458ZM221.833 137.181V142.613L227.841 139.069V133.637L221.833 137.181ZM221.833 142.824V148.256L227.841 144.712V139.281L221.833 142.824ZM227.994 133.547V138.979L234.002 135.435V130.003L227.994 133.547ZM227.994 139.19V144.622L234.002 141.078V135.647L227.994 139.19ZM234.155 129.913V135.345L240.163 131.801V126.369L234.155 129.913ZM234.155 135.556V140.988L240.163 137.444V132.013L234.155 135.556ZM240.316 126.279V131.711L246.324 128.167V122.735L240.316 126.279ZM240.316 131.922V137.354L246.324 133.81V128.379L240.316 131.922ZM246.477 122.645V128.077L252.485 124.533V119.101L246.477 122.645ZM246.477 128.288V133.72L252.485 130.176V124.744L246.477 128.287V128.288ZM209.511 155.735V161.167L215.519 157.623V152.191L209.511 155.735ZM215.672 152.101V157.533L221.68 153.989V148.557L215.672 152.101ZM221.833 148.467V153.899L227.841 150.355V144.923L221.833 148.467ZM227.994 144.833V150.265L234.002 146.721V141.289L227.994 144.833ZM234.155 141.199V146.631L240.163 143.087V137.655L234.155 141.199ZM240.316 137.565V142.997L246.324 139.453V134.021L240.316 137.565ZM246.477 133.931V139.363L252.485 135.819V130.387L246.477 133.931ZM209.511 161.378V166.81L215.519 163.266V157.835L209.511 161.378ZM215.672 157.744V163.176L221.68 159.632V154.201L215.672 157.744ZM221.833 154.11V159.542L227.841 155.998V150.567L221.833 154.11ZM227.994 150.476V155.908L234.002 152.364V146.933L227.994 150.476ZM234.155 146.842V152.274L240.163 148.73V143.299L234.155 146.842ZM240.316 143.208V148.64L246.324 145.096V139.665L240.316 143.208ZM246.477 139.574V145.006L252.485 141.462V136.031L246.477 139.574ZM209.511 167.021V172.453L215.519 168.909V163.477L209.511 167.021ZM215.672 163.387V168.819L221.68 165.275V159.843L215.672 163.387ZM221.833 159.753V165.185L227.841 161.641V156.209L221.833 159.753ZM227.994 156.119V161.551L234.002 158.007V152.575L227.994 156.119ZM234.155 152.485V157.917L240.163 154.373V148.941L234.155 152.485ZM240.316 148.851V154.283L246.324 150.739V145.307L240.316 148.851ZM246.477 145.217V150.649L252.485 147.105V141.673L246.477 145.217Z" fill="#FFD4E7"/>
<path opacity="0.548" fill-rule="evenodd" clip-rule="evenodd" d="M216.034 140.924L239.721 126.952V131.749L216.034 145.721V140.924ZM216.034 152.21L233.543 141.882V146.678L216.034 157.006V152.21ZM228.389 156.202L239.721 149.518V154.315L228.389 160.999V156.202ZM240.62 143.328L246.067 140.115V144.911L240.62 148.124V143.328Z" fill="#CC6196"/>
<path fill-rule="evenodd" clip-rule="evenodd" d="M216.98 141.42L240.667 127.448V132.245L216.98 146.217V141.42Z" fill="white"/>
<path fill-rule="evenodd" clip-rule="evenodd" d="M216.98 152.706L234.489 142.378V147.176L216.98 157.504V152.706Z" fill="#FFDBF8"/>
<path fill-rule="evenodd" clip-rule="evenodd" d="M229.336 156.699L240.667 150.015V154.812L229.336 161.496V156.699Z" fill="white"/>
<path fill-rule="evenodd" clip-rule="evenodd" d="M241.566 143.824L247.013 140.611V145.408L241.566 148.622V143.824Z" fill="#FFDBF8"/>
<path fill-rule="evenodd" clip-rule="evenodd" d="M243.372 172.969L242.084 193.898L240.163 194.121L243.373 195.662V194.371L246.975 178.092L249.12 192.207H247.39L250.123 194.371L250.808 193.898L250.423 171.482L243.372 172.969Z" fill="url(#paint3_linear)"/>
<path fill-rule="evenodd" clip-rule="evenodd" d="M251.898 162.011H250.378L250.983 165.39L250.378 167.585V169.399L252.358 165.849L251.898 162.011Z" fill="url(#paint4_linear)"/>
<path fill-rule="evenodd" clip-rule="evenodd" d="M242.863 173.083C246.133 174.628 248.784 174.024 250.816 171.268L250.199 162.277L252.373 162.094C251.91 157.609 250.557 155.457 248.315 155.641C246.073 155.825 244.256 157.976 242.863 162.094L243.595 163.951L242.863 173.083V173.083Z" fill="url(#paint5_linear)"/>
<path fill-rule="evenodd" clip-rule="evenodd" d="M243.329 162.802L242.659 164.11L238.214 162.087C238.214 161.469 237.787 160.941 237.205 160.84L236.771 160.765L236.071 160.04V161.448L237.027 162.47L242.991 166.427C243.068 166.476 243.153 166.508 243.241 166.522C243.329 166.536 243.419 166.532 243.506 166.51C243.593 166.488 243.675 166.448 243.747 166.392C243.819 166.337 243.88 166.267 243.926 166.187L245.438 163.576L243.329 162.801L243.329 162.802Z" fill="url(#paint6_linear)"/>
<path fill-rule="evenodd" clip-rule="evenodd" d="M244.529 149.784C244.148 152.036 244.242 153.5 244.81 154.176C245.378 154.852 246.009 155.189 246.704 155.189V156.919L248.177 156.106V153.738C249.195 152.849 249.597 151.849 249.382 150.74C249.09 149.236 247.689 148.265 246.252 148.571C245.658 148.697 245.124 149.033 244.737 149.522L244.53 149.785L244.529 149.784Z" fill="url(#paint7_linear)"/>
<path fill-rule="evenodd" clip-rule="evenodd" d="M244.978 149.316C245.243 150.171 245.877 150.696 246.879 150.892L246.899 152.054C247.163 151.419 247.572 151.142 248.127 151.222C248.96 151.343 247.875 153.115 247.512 153.375C247.27 153.548 247.474 154.003 248.127 154.741C249.465 153.979 250.239 153.074 250.449 152.028C250.763 150.461 251.34 148.704 250.117 148.358C248.893 148.012 247.774 145.89 245.146 146.951C243.394 147.659 243.338 148.447 244.979 149.316H244.978Z" fill="url(#paint8_linear)"/>
<path fill-rule="evenodd" clip-rule="evenodd" d="M144.646 54.6484L64.5313 104.091L110.221 132.407L190.336 82.964L144.646 54.6484Z" fill="url(#paint9_linear)"/>
<path fill-rule="evenodd" clip-rule="evenodd" d="M138.713 49.3325L78.252 83.7673L112.675 102.15L173.135 67.7148L138.713 49.3325Z" fill="url(#paint10_linear)" stroke="#979797" stroke-width="0.6"/>
<path fill-rule="evenodd" clip-rule="evenodd" d="M190.336 83.0264L110.221 131.252V177.386L190.336 127.942V83.0264Z" fill="url(#paint11_linear)"/>
<path fill-rule="evenodd" clip-rule="evenodd" d="M183.136 95.5376L120.587 133.19V161.03L183.136 122.427V95.5376Z" fill="url(#paint12_linear)"/>
<path fill-rule="evenodd" clip-rule="evenodd" d="M183.136 117.618L120.587 155.27V161.03L183.136 122.427V117.618Z" fill="url(#paint13_linear)"/>
<path fill-rule="evenodd" clip-rule="evenodd" d="M124.115 131.111L124.899 130.703V153.192L124.115 153.601V131.111Z" fill="url(#paint14_linear)"/>
<path fill-rule="evenodd" clip-rule="evenodd" d="M131.563 126.613L132.347 126.205V148.694L131.563 149.103V126.613Z" fill="url(#paint15_linear)"/>
<path fill-rule="evenodd" clip-rule="evenodd" d="M139.011 122.116L139.795 121.707V144.196L139.011 144.605V122.116Z" fill="url(#paint16_linear)"/>
<path fill-rule="evenodd" clip-rule="evenodd" d="M146.458 117.618L147.243 117.209V139.698L146.458 140.107V117.618Z" fill="url(#paint17_linear)"/>
<path fill-rule="evenodd" clip-rule="evenodd" d="M153.907 113.119L154.691 112.71V135.2L153.907 135.609V113.119Z" fill="url(#paint18_linear)"/>
<path fill-rule="evenodd" clip-rule="evenodd" d="M161.355 108.622L162.139 108.213V130.703L161.355 131.111V108.622Z" fill="url(#paint19_linear)"/>
<path fill-rule="evenodd" clip-rule="evenodd" d="M168.803 104.124L169.587 103.715V126.205L168.803 126.613V104.124Z" fill="url(#paint20_linear)"/>
<path fill-rule="evenodd" clip-rule="evenodd" d="M175.859 99.6261L176.643 99.2173V121.707L175.859 122.115V99.6261Z" fill="url(#paint21_linear)"/>
<path fill-rule="evenodd" clip-rule="evenodd" d="M183.136 95.5371L180.241 97.2245V119.486L183.136 122.427V95.5371Z" fill="url(#paint22_linear)"/>
<path fill-rule="evenodd" clip-rule="evenodd" d="M173.074 67.7329L112.747 102.002V120.385L173.074 85.1985V67.7329Z" fill="url(#paint23_linear)"/>
<path fill-rule="evenodd" clip-rule="evenodd" d="M64.5312 104.125V148.92L110.221 177.236V131.153L64.5312 104.125Z" fill="url(#paint24_linear)"/>
<path fill-rule="evenodd" clip-rule="evenodd" d="M78.251 83.9258V101.191L112.543 120.399V102.167L78.251 83.9258Z" fill="url(#paint25_linear)"/>
<path fill-rule="evenodd" clip-rule="evenodd" d="M68.2297 113.938L105 136.072V163.383L68.2297 140.827V113.938Z" fill="url(#paint26_linear)"/>
<path fill-rule="evenodd" clip-rule="evenodd" d="M68.2288 136.013L104.991 158.141V163.396L68.2288 140.822V136.013Z" fill="url(#paint27_linear)"/>
<path fill-rule="evenodd" clip-rule="evenodd" d="M99.0273 132.747L98.2431 132.338V154.828L99.0273 155.236V132.747Z" fill="url(#paint28_linear)"/>
<path fill-rule="evenodd" clip-rule="evenodd" d="M91.5795 128.25L90.7952 127.841V150.33L91.5795 150.739V128.25Z" fill="url(#paint29_linear)"/>
<path fill-rule="evenodd" clip-rule="evenodd" d="M84.1318 123.751L83.3476 123.342V145.832L84.1318 146.24V123.751Z" fill="url(#paint30_linear)"/>
<path fill-rule="evenodd" clip-rule="evenodd" d="M76.6838 119.254L75.8996 118.845V141.334L76.6838 141.743V119.254Z" fill="url(#paint31_linear)"/>
<path fill-rule="evenodd" clip-rule="evenodd" d="M68.2297 113.938L71.1245 115.625V137.886L68.2297 140.827V113.938Z" fill="url(#paint32_linear)"/>
<path fill-rule="evenodd" clip-rule="evenodd" d="M138.713 49.3325L78.252 83.7673L112.675 102.15L173.135 67.7148L138.713 49.3325Z" fill="url(#paint33_linear)" stroke="#979797" stroke-width="0.6"/>
<path fill-rule="evenodd" clip-rule="evenodd" d="M119.019 106.169L125.683 102.489V113.12L119.019 116.8V106.169Z" fill="url(#paint34_linear)"/>
<path fill-rule="evenodd" clip-rule="evenodd" d="M119.019 110.667L125.683 113.12L119.019 116.8V110.667Z" fill="url(#paint35_linear)"/>
<path fill-rule="evenodd" clip-rule="evenodd" d="M89.6195 95.129L82.9552 91.4487V102.08L89.6195 105.76V95.129Z" fill="url(#paint36_linear)"/>
<path fill-rule="evenodd" clip-rule="evenodd" d="M89.6195 99.626L82.9552 102.079L89.6195 105.76V99.626Z" fill="url(#paint37_linear)"/>
<path fill-rule="evenodd" clip-rule="evenodd" d="M97.8513 100.445L91.187 96.7646V107.396L97.8513 111.076V100.445Z" fill="url(#paint38_linear)"/>
<path fill-rule="evenodd" clip-rule="evenodd" d="M97.8513 104.942L91.187 107.395L97.8513 111.077V104.942Z" fill="url(#paint39_linear)"/>
<path fill-rule="evenodd" clip-rule="evenodd" d="M106.083 105.76L99.4188 102.08V112.711L106.083 116.392V105.76Z" fill="url(#paint40_linear)"/>
<path fill-rule="evenodd" clip-rule="evenodd" d="M106.083 110.258L99.4189 112.711L106.083 116.392V110.258Z" fill="url(#paint41_linear)"/>
<path fill-rule="evenodd" clip-rule="evenodd" d="M127.251 101.262L133.916 97.5815V108.213L127.251 111.893V101.262Z" fill="url(#paint42_linear)"/>
<path fill-rule="evenodd" clip-rule="evenodd" d="M127.251 105.76L133.916 108.213L127.251 111.893V105.76Z" fill="url(#paint43_linear)"/>
<path fill-rule="evenodd" clip-rule="evenodd" d="M135.483 96.3556L142.148 92.6753V103.307L135.483 106.987V96.3556Z" fill="url(#paint44_linear)"/>
<path fill-rule="evenodd" clip-rule="evenodd" d="M143.715 91.4489L150.379 87.7686V98.3999L143.715 102.08V91.4489Z" fill="url(#paint45_linear)"/>
<path fill-rule="evenodd" clip-rule="evenodd" d="M151.947 86.9513L158.611 83.271V93.9023L151.947 97.5826V86.9513Z" fill="url(#paint46_linear)"/>
<path fill-rule="evenodd" clip-rule="evenodd" d="M160.179 82.0441L166.843 78.3638V88.9951L160.179 92.6754V82.0441Z" fill="url(#paint47_linear)"/>
<path fill-rule="evenodd" clip-rule="evenodd" d="M138.713 45.2437L78.2519 79.6784L112.675 98.0607L173.135 63.6259L138.713 45.2437Z" fill="url(#paint48_linear)"/>
<path fill-rule="evenodd" clip-rule="evenodd" d="M137.835 49.5786V54.5766L163.635 69.0279L165.574 64.334L137.835 49.5786Z" fill="url(#paint49_linear)"/>
<path fill-rule="evenodd" clip-rule="evenodd" d="M173.074 63.6436L112.747 97.913V104.029L173.074 68.8424V63.6436Z" fill="url(#paint50_linear)"/>
<path fill-rule="evenodd" clip-rule="evenodd" d="M138.186 50.1504L82.5635 81.7474V87.3865L138.186 54.9433V50.1504Z" fill="url(#paint51_linear)"/>
<path d="M168.321 66.3437L115.183 96.5297L112.544 98.0789L111.141 97.3325L107.628 96.0625L108.165 95.7491L78.252 79.8369L78.3084 79.8028L78.252 79.7728L80.1068 78.7173L82.9118 77.0242L83.0002 77.0705L138.781 45.3374L173.074 63.5794L173.017 63.6136L173.074 63.6435L171.262 64.6727L168.413 66.3914L168.321 66.343L168.321 66.3437ZM163.196 63.6513L138.238 50.5391L88.1287 79.7657L113.087 92.8779L163.196 63.6513Z" fill="url(#paint52_linear)"/>
<path fill-rule="evenodd" clip-rule="evenodd" d="M78.2512 79.8369V84.8349L112.544 104.043V98.0789L78.2512 79.8369Z" fill="url(#paint53_linear)"/>
<path d="M234.256 77.994C234.531 77.9755 234.78 78.0944 234.81 78.2597L235.251 80.6351C235.271 80.7448 235.139 80.8438 234.955 80.8566C234.931 80.858 234.906 80.858 234.881 80.8566L230.912 80.5924C230.636 80.5738 230.437 80.4257 230.468 80.2604C230.499 80.0952 230.747 79.977 231.022 79.9948L234.057 80.1963C234.103 80.1992 234.144 80.18 234.149 80.1522C234.15 80.1486 234.15 80.1451 234.149 80.1408L233.812 78.3252C233.781 78.1607 233.98 78.0118 234.255 77.9933L234.256 77.994ZM231.889 76.5773C232.164 76.5588 232.413 76.6777 232.443 76.843L232.884 79.2184C232.904 79.3288 232.772 79.4271 232.588 79.4399C232.563 79.4416 232.539 79.4416 232.514 79.4399L228.545 79.1764C228.269 79.1578 228.07 79.0097 228.101 78.8444C228.132 78.6792 228.38 78.561 228.655 78.5788L231.69 78.7803C231.736 78.7832 231.777 78.7633 231.782 78.7362C231.783 78.7326 231.783 78.7291 231.782 78.7255L231.445 76.9099C231.414 76.7447 231.613 76.5965 231.888 76.578L231.889 76.5773ZM229.522 75.1606C229.797 75.1421 230.046 75.261 230.076 75.4263L230.517 77.8017C230.537 77.9114 230.405 78.0104 230.221 78.0232C230.197 78.0246 230.172 78.0246 230.147 78.0232L226.178 77.7589C225.902 77.7404 225.703 77.5923 225.734 77.427C225.765 77.2618 226.013 77.1436 226.288 77.1614L229.323 77.3629C229.369 77.3658 229.41 77.3465 229.415 77.3188C229.416 77.3152 229.416 77.3117 229.415 77.3074L229.078 75.4918C229.047 75.3265 229.246 75.1784 229.521 75.1599L229.522 75.1606Z" fill="#00E4FF"/>
<path fill-rule="evenodd" clip-rule="evenodd" d="M45.9717 47.1471L55.9777 41.0878L66.1829 47.2682L56.2579 53.2784L80.4583 67.7026L133.752 35.4296L74.2939 -0.00878906L21 32.2635L45.9717 47.1471Z" fill="url(#paint54_linear)"/>
<path fill-rule="evenodd" clip-rule="evenodd" d="M133.706 30.4385L80.4277 62.693V194.872L133.706 162.617V30.4385Z" fill="url(#paint55_linear)"/>
<path fill-rule="evenodd" clip-rule="evenodd" d="M133.752 30.606L80.4739 62.8604V195.039L133.752 162.785V30.606Z" fill="url(#paint56_linear)"/>
<path fill-rule="evenodd" clip-rule="evenodd" d="M66.1832 42.3196L55.9433 35.7119V166.78L66.1832 173.388V42.3196Z" fill="url(#paint57_linear)"/>
<path fill-rule="evenodd" clip-rule="evenodd" d="M80.4586 62.3448L56.2426 48.0752V179.362L80.4586 194.475V62.3448Z" fill="url(#paint58_linear)"/>
<path fill-rule="evenodd" clip-rule="evenodd" d="M79.0308 65.462L72.8447 62.0481V74.4039L79.0308 78.0193V65.462ZM79.0308 83.429L72.8447 80.0151V92.3709L79.0308 95.9864V83.429ZM71.4177 60.9704L65.2315 57.5572V69.9123L71.4177 73.5278V60.9704ZM71.4177 78.9375L65.2315 75.5235V87.8793L71.4177 91.4948V78.9375ZM63.8045 56.4789L57.6184 53.0649V65.4207L63.8045 69.0362V56.4789ZM63.8045 74.4459L57.6184 71.032V83.3877L63.8045 87.0032V74.4459ZM79.0315 101.396L72.8453 97.9829V110.338L79.0315 113.953V101.396ZM71.4183 96.9045L65.2322 93.4906V105.846L71.4183 109.462V96.9045ZM63.8052 92.4129L57.6191 88.9997V101.355L63.8052 104.971V92.4136V92.4129ZM79.0321 119.364L72.846 115.95V128.306L79.0321 131.921V119.365V119.364ZM71.419 114.872L65.2329 111.458V123.814L71.419 127.43V114.872V114.872ZM63.8059 110.38L57.6198 106.967V119.323L63.8059 122.938V110.381V110.38ZM79.0328 137.331L72.8467 133.917V146.273L79.0328 149.888V137.332V137.331ZM71.4197 132.839L65.2336 129.425V141.781L71.4197 145.397V132.839V132.839ZM63.8066 128.347L57.6204 124.934V137.29L63.8066 140.905V128.348V128.347ZM79.0335 155.297L72.8474 151.884V164.24L79.0335 167.855V155.298V155.297ZM71.4204 150.806L65.2343 147.392V159.748L71.4204 163.364V150.806V150.806ZM63.8073 146.314L57.6211 142.901V155.257L63.8073 158.871V146.315V146.314ZM79.0342 173.264L72.8481 169.851V182.207L79.0342 185.822V173.265V173.264ZM71.4211 168.773L65.2349 165.359V177.715L71.4211 181.331V168.773V168.773ZM63.8079 164.281L57.6218 160.868V173.224L63.8079 176.838V164.282V164.281Z" fill="url(#paint59_linear)"/>
<path fill-rule="evenodd" clip-rule="evenodd" d="M45.931 42.1409L55.9431 35.7119V166.849L45.931 173.278V42.1409Z" fill="url(#paint60_linear)"/>
<path fill-rule="evenodd" clip-rule="evenodd" d="M45.9525 42.1191L21.0481 27.2646V159.414L45.9525 173.215V42.1191Z" fill="url(#paint61_linear)"/>
<path fill-rule="evenodd" clip-rule="evenodd" d="M120.905 30.3212L74.0167 2.15869V8.64676L120.905 36.8085V30.3212Z" fill="url(#paint62_linear)"/>
<path fill-rule="evenodd" clip-rule="evenodd" d="M33.0297 27.2565L74.273 2.15967V8.64774L33.0297 33.7446V27.2565Z" fill="url(#paint63_linear)"/>
<path fill-rule="evenodd" clip-rule="evenodd" d="M43.8191 45.0006L37.633 41.5867V53.9424L43.8191 57.5579V45.0006ZM43.8191 62.9676L37.633 59.5537V71.9095L43.8191 75.5249V62.9676ZM36.206 40.509L30.0199 37.0958V49.4516L36.206 53.0663V40.509ZM36.206 58.476L30.0199 55.0628V67.4179L36.206 71.0334V58.476ZM28.5929 36.0174L22.4067 32.6035V44.9593L28.5929 48.5748V36.0174ZM28.5929 53.9845L22.4067 50.5705V62.9263L28.5929 66.5418V53.9845ZM43.8198 80.9346L37.6336 77.5214V89.8772L43.8198 93.492V80.9346ZM36.2067 76.4431L30.0205 73.0292V85.3849L36.2067 89.0004V76.4431ZM28.5935 71.9515L22.4074 68.5376V80.8933L28.5935 84.5088V71.9515ZM43.8205 98.9017L37.6343 95.4885V107.844L43.8205 111.459V98.9017ZM36.2073 94.4101L30.0212 90.9962V103.352L36.2073 106.967V94.4101ZM28.5942 89.9185L22.4081 86.5053V98.8611L28.5942 102.476V89.9185ZM43.8211 116.869L37.635 113.456V125.811L43.8211 129.427V116.87V116.869ZM36.208 112.377L30.0219 108.964V121.32L36.208 124.935V112.378V112.377ZM28.5949 107.886L22.4088 104.472V116.827L28.5949 120.443V107.886ZM43.8218 134.836L37.6357 131.423V143.778L43.8218 147.394V134.836V134.836ZM36.2087 130.344L30.0226 126.931V139.287L36.2087 142.902V130.345V130.344ZM28.5956 125.853L22.4094 122.439V134.795L28.5956 138.411V125.853V125.853ZM43.8225 152.803L37.6364 149.39V161.745L43.8225 165.361V152.803V152.803ZM36.2094 148.311L30.0233 144.898V157.254L36.2094 160.869V148.312V148.311ZM28.5963 143.82L22.4101 140.406V152.762L28.5963 156.377V143.82V143.82Z" fill="url(#paint64_linear)"/>
<path d="M78.5552 42.2763L55.9777 28.6042L45.9472 34.6785L33.4457 27.2274L74.3184 2.47671L121.306 30.4832L80.4338 55.2339L68.7036 48.2422L78.5552 42.2763ZM66.1836 42.2763L56.2586 48.2864L80.459 62.7106L133.752 30.4383L74.2939 -5L21 27.2723L45.971 42.1559L55.977 36.0966L66.1822 42.277L66.1836 42.2763Z" fill="url(#paint65_linear)"/>
<g opacity="0.8">
<path opacity="0.8" d="M212.033 59.104C215.017 59.653 217.243 62.2561 217.243 65.3413C217.243 68.582 214.787 71.2926 211.501 71.6498H198.742C195.456 71.2926 193 68.582 193 65.3413C193 61.8383 195.856 58.998 199.38 58.998L199.507 58.9991C200.1 56.0838 202.692 53.9219 205.76 53.9219C208.863 53.9219 211.481 56.1358 212.033 59.104Z" fill="#3CB8FB"/>
<path opacity="0.8" d="M212.033 59.104C215.017 59.653 217.243 62.2561 217.243 65.3413C217.243 68.582 214.787 71.2926 211.501 71.6498H198.742C195.456 71.2926 193 68.582 193 65.3413C193 61.8383 195.856 58.998 199.38 58.998L199.507 58.9991C200.1 56.0838 202.692 53.9219 205.76 53.9219C208.863 53.9219 211.481 56.1358 212.033 59.104Z" fill="url(#paint66_linear)"/>
</g>
<path d="M206.402 61.8209L204.507 68.2946C204.364 68.5652 204.029 68.6683 203.758 68.5253C203.487 68.3823 203.384 68.0473 203.527 67.7766L205.422 61.303C205.565 61.0323 205.901 60.9292 206.171 61.0722C206.442 61.2152 206.545 61.5503 206.402 61.8209ZM208.968 64.819L206.988 62.84C206.771 62.6237 206.771 62.273 206.988 62.0564C207.204 61.8398 207.555 61.8401 207.772 62.0564L210.141 64.424C210.356 64.6391 210.358 64.9874 210.144 65.2043L207.775 67.6097C207.56 67.8277 207.209 67.8304 206.991 67.6159C206.773 67.4014 206.77 67.0504 206.985 66.8323L208.968 64.8187L208.968 64.819ZM200.843 64.8506L202.824 66.8296C203.04 67.0459 203.04 67.3966 202.824 67.6132C202.607 67.8298 202.256 67.8295 202.04 67.6132L199.671 65.2457C199.455 65.0306 199.454 64.6822 199.668 64.4653L202.037 62.0599C202.251 61.8419 202.603 61.8392 202.821 62.0537C203.039 62.2682 203.042 62.6193 202.827 62.8373L200.844 64.8509L200.843 64.8506Z" fill="white"/>
<path fill-rule="evenodd" clip-rule="evenodd" d="M310.106 84.2628L349.618 100.256V111.086C349.618 111.338 349.535 111.586 349.379 111.804C349.222 112.022 348.997 112.203 348.726 112.329L310.118 130.257C309.569 130.512 308.946 130.644 308.313 130.641C307.68 130.639 307.059 130.5 306.514 130.24L267.887 111.836C267.621 111.709 267.4 111.529 267.246 111.312C267.093 111.095 267.012 110.851 267.012 110.601V99.697L306.502 84.2463C307.051 83.9916 307.674 83.859 308.307 83.8619C308.94 83.8648 309.561 84.0031 310.106 84.2628Z" fill="url(#paint67_linear)"/>
<path fill-rule="evenodd" clip-rule="evenodd" d="M273.082 110.836C274.314 111.448 275.312 111.141 275.312 110.15C275.312 109.159 274.314 107.86 273.082 107.248C271.85 106.636 270.851 106.944 270.851 107.935C270.851 108.926 271.85 110.224 273.082 110.836Z" fill="url(#paint68_linear)"/>
<path fill-rule="evenodd" clip-rule="evenodd" d="M272.781 110.58C274.013 111.192 275.011 110.884 275.011 109.894C275.011 108.903 274.013 107.604 272.781 106.992C271.549 106.381 270.55 106.687 270.55 107.678C270.55 108.669 271.549 109.968 272.781 110.58Z" fill="url(#paint69_linear)"/>
<path fill-rule="evenodd" clip-rule="evenodd" d="M281.157 114.61C282.39 115.222 283.388 114.915 283.388 113.924C283.388 112.933 282.39 111.634 281.157 111.022C279.925 110.41 278.927 110.718 278.927 111.709C278.927 112.699 279.925 113.998 281.157 114.61Z" fill="url(#paint70_linear)"/>
<path fill-rule="evenodd" clip-rule="evenodd" d="M280.81 114.411C282.043 115.023 283.041 114.716 283.041 113.725C283.041 112.734 282.043 111.435 280.81 110.823C279.578 110.211 278.58 110.519 278.58 111.51C278.58 112.501 279.578 113.8 280.81 114.411Z" fill="url(#paint71_linear)"/>
<path fill-rule="evenodd" clip-rule="evenodd" d="M332.111 112.181L344.601 106.368V107.803L332.111 113.616V112.181ZM332.111 115.051L344.601 109.238V110.674L332.111 116.486V115.051Z" fill="#078CD3"/>
<path fill-rule="evenodd" clip-rule="evenodd" d="M310.106 80.6744L348.745 99.0866C349.013 99.2143 349.235 99.3962 349.389 99.6142C349.542 99.8322 349.622 100.079 349.62 100.329C349.619 100.58 349.535 100.826 349.379 101.042C349.222 101.259 348.998 101.439 348.728 101.564L310.118 119.493C309.57 119.748 308.947 119.88 308.314 119.877C307.681 119.874 307.06 119.736 306.515 119.476L267.875 101.064C267.468 100.87 267.173 100.554 267.056 100.185C266.938 99.8166 267.008 99.4255 267.249 99.0981C267.405 98.8864 267.627 98.7099 267.892 98.5865L306.502 80.6579C307.051 80.4033 307.674 80.2706 308.307 80.2735C308.94 80.2764 309.561 80.4148 310.106 80.6744Z" fill="url(#paint72_linear)"/>
<path fill-rule="evenodd" clip-rule="evenodd" d="M310.106 69.9107L349.618 85.904V96.7343C349.618 96.9862 349.535 97.2337 349.379 97.4518C349.222 97.67 348.997 97.8511 348.726 97.9771L310.118 115.905C309.569 116.16 308.946 116.292 308.313 116.289C307.68 116.286 307.059 116.148 306.514 115.888L267.887 97.4841C267.621 97.3571 267.4 97.1765 267.246 96.9599C267.093 96.7434 267.012 96.4984 267.012 96.2492V85.345L306.502 69.8942C307.051 69.6396 307.674 69.5069 308.307 69.5098C308.94 69.5127 309.561 69.6511 310.106 69.9107Z" fill="url(#paint73_linear)"/>
<path fill-rule="evenodd" clip-rule="evenodd" d="M273.082 96.4832C274.314 97.0953 275.312 96.7881 275.312 95.7972C275.312 94.8062 274.314 93.5074 273.082 92.8953C271.85 92.2833 270.851 92.5911 270.851 93.5821C270.851 94.573 271.85 95.8718 273.082 96.4832Z" fill="url(#paint74_linear)"/>
<path fill-rule="evenodd" clip-rule="evenodd" d="M272.781 96.2297C274.013 96.8417 275.011 96.5339 275.011 95.5429C275.011 94.552 274.013 93.2532 272.781 92.6418C271.549 92.0304 270.55 92.3368 270.55 93.3278C270.55 94.3188 271.549 95.6176 272.781 96.2297Z" fill="url(#paint75_linear)"/>
<path fill-rule="evenodd" clip-rule="evenodd" d="M281.157 100.258C282.39 100.87 283.388 100.563 283.388 99.5717C283.388 98.5807 282.39 97.2819 281.157 96.6698C279.925 96.0577 278.927 96.3655 278.927 97.3565C278.927 98.3475 279.925 99.6463 281.157 100.258Z" fill="url(#paint76_linear)"/>
<path fill-rule="evenodd" clip-rule="evenodd" d="M280.81 100.06C282.043 100.672 283.041 100.365 283.041 99.3738C283.041 98.3829 282.043 97.0841 280.81 96.472C279.578 95.8599 278.58 96.1678 278.58 97.1587C278.58 98.1497 279.578 99.4485 280.81 100.06Z" fill="url(#paint77_linear)"/>
<path fill-rule="evenodd" clip-rule="evenodd" d="M332.111 97.8295L344.601 92.0171V93.4522L332.111 99.2646V97.8295ZM332.111 100.7L344.601 94.8874V96.3225L332.111 102.135V100.7Z" fill="#078CD3"/>
<path fill-rule="evenodd" clip-rule="evenodd" d="M310.106 66.3229L348.745 84.735C349.013 84.8627 349.235 85.0446 349.389 85.2626C349.542 85.4806 349.622 85.7272 349.62 85.9778C349.619 86.2284 349.535 86.4742 349.379 86.6909C349.222 86.9075 348.998 87.0875 348.728 87.2128L310.117 105.141C309.569 105.396 308.946 105.529 308.313 105.526C307.68 105.523 307.059 105.384 306.514 105.125L267.875 86.7126C267.468 86.5186 267.173 86.2024 267.056 85.8337C266.938 85.465 267.008 85.0739 267.249 84.7465C267.405 84.5348 267.627 84.3583 267.892 84.2348L306.502 66.3064C307.051 66.0517 307.674 65.919 308.307 65.9219C308.94 65.9248 309.561 66.0632 310.106 66.3229Z" fill="url(#paint78_linear)"/>
<g filter="url(#filter2_d)">
<path d="M181.675 230.696L134.961 243.682C132.653 244.044 130.204 243.385 129.493 242.213C128.782 241.041 130.075 239.797 132.384 239.435L179.099 226.449C181.406 226.087 183.855 226.745 184.566 227.918C185.278 229.09 183.984 230.334 181.675 230.696ZM179.253 246.469V235.246C179.253 234.018 181.211 233.025 183.626 233.025C186.042 233.025 188 234.02 188 235.246V248.673C188 249.893 186.062 250.885 183.661 250.894L157.015 251C154.599 251.01 152.626 250.022 152.606 248.796C152.586 247.57 154.53 246.566 156.945 246.556L179.253 246.466V246.469ZM133.747 223.534V234.757C133.747 235.983 131.789 236.978 129.374 236.978C126.958 236.978 125 235.983 125 234.757V221.329C125 220.11 126.938 219.116 129.339 219.108L155.985 219C158.401 218.991 160.374 219.977 160.394 221.205C160.414 222.433 158.47 223.435 156.055 223.444L133.747 223.534Z" fill="url(#paint79_linear)"/>
</g>
<path d="M376.381 200.841C380.707 204.476 379.994 209.459 374.457 212.655C368.64 216.013 359.405 216.299 352.918 213.295L330.216 200.189C325.012 196.444 325.506 191.113 331.323 187.754C337.611 184.125 347.791 184.115 354.06 187.734L354.284 187.866C360.572 185.455 369.064 185.877 374.522 189.028C380.044 192.216 380.727 197.198 376.381 200.841Z" fill="url(#paint80_linear)"/>
</g>
<defs>
<filter id="filter0_d" x="136.85" y="172.763" width="218.888" height="127.704" filterUnits="userSpaceOnUse" color-interpolation-filters="sRGB">
<feFlood flood-opacity="0" result="BackgroundImageFix"/>
<feColorMatrix in="SourceAlpha" type="matrix" values="0 0 0 0 0 0 0 0 0 0 0 0 0 0 0 0 0 0 127 0"/>
<feOffset dx="-10" dy="2"/>
<feGaussianBlur stdDeviation="2.5"/>
<feColorMatrix type="matrix" values="0 0 0 0 0.439512 0 0 0 0 0.825509 0 0 0 0 1 0 0 0 0.36297 0"/>
<feBlend mode="normal" in2="BackgroundImageFix" result="effect1_dropShadow"/>
<feBlend mode="normal" in="SourceGraphic" in2="effect1_dropShadow" result="shape"/>
</filter>
<filter id="filter1_d" x="177.746" y="78.8086" width="112.246" height="136.232" filterUnits="userSpaceOnUse" color-interpolation-filters="sRGB">
<feFlood flood-opacity="0" result="BackgroundImageFix"/>
<feColorMatrix in="SourceAlpha" type="matrix" values="0 0 0 0 0 0 0 0 0 0 0 0 0 0 0 0 0 0 127 0"/>
<feOffset dx="3" dy="-3"/>
<feGaussianBlur stdDeviation="16"/>
<feColorMatrix type="matrix" values="0 0 0 0 0.729412 0 0 0 0 0.921569 0 0 0 0 1 0 0 0 0.502038 0"/>
<feBlend mode="normal" in2="BackgroundImageFix" result="effect1_dropShadow"/>
<feBlend mode="normal" in="SourceGraphic" in2="effect1_dropShadow" result="shape"/>
</filter>
<filter id="filter2_d" x="124" y="219" width="65" height="37" filterUnits="userSpaceOnUse" color-interpolation-filters="sRGB">
<feFlood flood-opacity="0" result="BackgroundImageFix"/>
<feColorMatrix in="SourceAlpha" type="matrix" values="0 0 0 0 0 0 0 0 0 0 0 0 0 0 0 0 0 0 127 0"/>
<feOffset dy="4"/>
<feGaussianBlur stdDeviation="0.5"/>
<feColorMatrix type="matrix" values="0 0 0 0 0.235294 0 0 0 0 0.6 0 0 0 0 0.984314 0 0 0 0.5 0"/>
<feBlend mode="normal" in2="BackgroundImageFix" result="effect1_dropShadow"/>
<feBlend mode="normal" in="SourceGraphic" in2="effect1_dropShadow" result="shape"/>
</filter>
<linearGradient id="paint0_linear" x1="314.269" y1="259.664" x2="31.18" y2="157.862" gradientUnits="userSpaceOnUse">
<stop stop-color="#3DB9FF"/>
<stop offset="1" stop-color="#5EDBD5"/>
</linearGradient>
<linearGradient id="paint1_linear" x1="211.091" y1="196.506" x2="265.904" y2="146.899" gradientUnits="userSpaceOnUse">
<stop stop-color="#FF8FC6"/>
<stop offset="1" stop-color="#FFCCE4"/>
</linearGradient>
<linearGradient id="paint2_linear" x1="251.996" y1="124.672" x2="189.924" y2="165.255" gradientUnits="userSpaceOnUse">
<stop stop-color="#3DB9FF"/>
<stop offset="1" stop-color="#4265ED"/>
</linearGradient>
<linearGradient id="paint3_linear" x1="242.024" y1="188.928" x2="249.41" y2="180.872" gradientUnits="userSpaceOnUse">
<stop stop-color="#3C99FB"/>
<stop offset="1" stop-color="#4265ED"/>
</linearGradient>
<linearGradient id="paint4_linear" x1="251.368" y1="162.011" x2="251.368" y2="169.399" gradientUnits="userSpaceOnUse">
<stop stop-color="#FECAC8"/>
<stop offset="1" stop-color="#FC9A97"/>
</linearGradient>
<linearGradient id="paint5_linear" x1="247.618" y1="155.63" x2="247.618" y2="179.145" gradientUnits="userSpaceOnUse">
<stop stop-color="white"/>
<stop offset="1" stop-color="#B9EBFF"/>
</linearGradient>
<linearGradient id="paint6_linear" x1="240.754" y1="160.04" x2="240.754" y2="166.53" gradientUnits="userSpaceOnUse">
<stop stop-color="#FECAC8"/>
<stop offset="0.691662" stop-color="#FDA9A6"/>
<stop offset="1" stop-color="#FC9A97"/>
</linearGradient>
<linearGradient id="paint7_linear" x1="246.869" y1="148.515" x2="246.869" y2="156.919" gradientUnits="userSpaceOnUse">
<stop stop-color="#FECAC8"/>
<stop offset="1" stop-color="#FC9A97"/>
</linearGradient>
<linearGradient id="paint8_linear" x1="243.789" y1="145.527" x2="248.191" y2="154.308" gradientUnits="userSpaceOnUse">
<stop stop-color="#7E7E7E"/>
<stop offset="1" stop-color="#272727"/>
</linearGradient>
<linearGradient id="paint9_linear" x1="127.434" y1="54.6484" x2="146.722" y2="182.43" gradientUnits="userSpaceOnUse">
<stop stop-color="white"/>
<stop offset="1" stop-color="#B9EBFF"/>
</linearGradient>
<linearGradient id="paint10_linear" x1="124.174" y1="80.6493" x2="132.231" y2="-44.5909" gradientUnits="userSpaceOnUse">
<stop stop-color="white"/>
<stop offset="1" stop-color="#B9EBFF"/>
</linearGradient>
<linearGradient id="paint11_linear" x1="-1022.34" y1="49.7864" x2="191.544" y2="111.43" gradientUnits="userSpaceOnUse">
<stop stop-color="white"/>
<stop offset="1" stop-color="#B9EBFF"/>
</linearGradient>
<linearGradient id="paint12_linear" x1="147.166" y1="158.173" x2="218.281" y2="54.6661" gradientUnits="userSpaceOnUse">
<stop stop-color="#2D7FFF"/>
<stop offset="1" stop-color="#5EDBD5"/>
</linearGradient>
<linearGradient id="paint13_linear" x1="138.361" y1="82.1481" x2="157.112" y2="189.782" gradientUnits="userSpaceOnUse">
<stop stop-color="white"/>
<stop offset="1" stop-color="#B9EBFF"/>
</linearGradient>
<linearGradient id="paint14_linear" x1="124.115" y1="122.166" x2="122.251" y2="122.208" gradientUnits="userSpaceOnUse">
<stop stop-color="white"/>
<stop offset="1" stop-color="#B9EBFF"/>
</linearGradient>
<linearGradient id="paint15_linear" x1="131.563" y1="117.668" x2="129.699" y2="117.709" gradientUnits="userSpaceOnUse">
<stop stop-color="white"/>
<stop offset="1" stop-color="#B9EBFF"/>
</linearGradient>
<linearGradient id="paint16_linear" x1="139.011" y1="113.17" x2="137.147" y2="113.212" gradientUnits="userSpaceOnUse">
<stop stop-color="white"/>
<stop offset="1" stop-color="#B9EBFF"/>
</linearGradient>
<linearGradient id="paint17_linear" x1="146.458" y1="108.672" x2="144.594" y2="108.714" gradientUnits="userSpaceOnUse">
<stop stop-color="white"/>
<stop offset="1" stop-color="#B9EBFF"/>
</linearGradient>
<linearGradient id="paint18_linear" x1="153.907" y1="104.174" x2="152.043" y2="104.215" gradientUnits="userSpaceOnUse">
<stop stop-color="white"/>
<stop offset="1" stop-color="#B9EBFF"/>
</linearGradient>
<linearGradient id="paint19_linear" x1="161.355" y1="99.6766" x2="159.491" y2="99.7183" gradientUnits="userSpaceOnUse">
<stop stop-color="white"/>
<stop offset="1" stop-color="#B9EBFF"/>
</linearGradient>
<linearGradient id="paint20_linear" x1="168.803" y1="95.1786" x2="166.939" y2="95.2202" gradientUnits="userSpaceOnUse">
<stop stop-color="white"/>
<stop offset="1" stop-color="#B9EBFF"/>
</linearGradient>
<linearGradient id="paint21_linear" x1="175.859" y1="90.6805" x2="173.994" y2="90.7222" gradientUnits="userSpaceOnUse">
<stop stop-color="white"/>
<stop offset="1" stop-color="#B9EBFF"/>
</linearGradient>
<linearGradient id="paint22_linear" x1="183.136" y1="85.5122" x2="189.987" y2="85.9933" gradientUnits="userSpaceOnUse">
<stop stop-color="white"/>
<stop offset="1" stop-color="#B9EBFF"/>
</linearGradient>
<linearGradient id="paint23_linear" x1="-740.067" y1="49.1853" x2="172.057" y2="111.692" gradientUnits="userSpaceOnUse">
<stop stop-color="white"/>
<stop offset="1" stop-color="#B9EBFF"/>
</linearGradient>
<linearGradient id="paint24_linear" x1="87.376" y1="134.688" x2="14.8425" y2="166.165" gradientUnits="userSpaceOnUse">
<stop stop-color="white"/>
<stop offset="1" stop-color="#B9EBFF"/>
</linearGradient>
<linearGradient id="paint25_linear" x1="95.3971" y1="99.1729" x2="50.0396" y2="128.787" gradientUnits="userSpaceOnUse">
<stop stop-color="white"/>
<stop offset="1" stop-color="#B9EBFF"/>
</linearGradient>
<linearGradient id="paint26_linear" x1="79.0163" y1="120.492" x2="67.6773" y2="2.05534" gradientUnits="userSpaceOnUse">
<stop stop-color="white"/>
<stop offset="1" stop-color="#B9EBFF"/>
</linearGradient>
<linearGradient id="paint27_linear" x1="94.5443" y1="113.639" x2="81.907" y2="181.23" gradientUnits="userSpaceOnUse">
<stop stop-color="white"/>
<stop offset="1" stop-color="#B9EBFF"/>
</linearGradient>
<linearGradient id="paint28_linear" x1="99.0273" y1="123.802" x2="100.892" y2="123.843" gradientUnits="userSpaceOnUse">
<stop stop-color="white"/>
<stop offset="1" stop-color="#B9EBFF"/>
</linearGradient>
<linearGradient id="paint29_linear" x1="91.5795" y1="119.304" x2="93.4437" y2="119.346" gradientUnits="userSpaceOnUse">
<stop stop-color="white"/>
<stop offset="1" stop-color="#B9EBFF"/>
</linearGradient>
<linearGradient id="paint30_linear" x1="84.1318" y1="114.806" x2="85.9961" y2="114.847" gradientUnits="userSpaceOnUse">
<stop stop-color="white"/>
<stop offset="1" stop-color="#B9EBFF"/>
</linearGradient>
<linearGradient id="paint31_linear" x1="76.6838" y1="110.308" x2="78.5481" y2="110.35" gradientUnits="userSpaceOnUse">
<stop stop-color="white"/>
<stop offset="1" stop-color="#B9EBFF"/>
</linearGradient>
<linearGradient id="paint32_linear" x1="68.2297" y1="103.913" x2="61.3786" y2="104.394" gradientUnits="userSpaceOnUse">
<stop stop-color="white"/>
<stop offset="1" stop-color="#B9EBFF"/>
</linearGradient>
<linearGradient id="paint33_linear" x1="124.174" y1="80.6493" x2="132.231" y2="-44.5909" gradientUnits="userSpaceOnUse">
<stop stop-color="white"/>
<stop offset="1" stop-color="#B9EBFF"/>
</linearGradient>
<linearGradient id="paint34_linear" x1="122.351" y1="108.472" x2="133.733" y2="112.152" gradientUnits="userSpaceOnUse">
<stop stop-color="white"/>
<stop offset="1" stop-color="#B9EBFF"/>
</linearGradient>
<linearGradient id="paint35_linear" x1="123.79" y1="105.656" x2="120.354" y2="120.53" gradientUnits="userSpaceOnUse">
<stop stop-color="white"/>
<stop offset="1" stop-color="#B9EBFF"/>
</linearGradient>
<linearGradient id="paint36_linear" x1="84.8489" y1="79.7555" x2="100.119" y2="108.085" gradientUnits="userSpaceOnUse">
<stop stop-color="white"/>
<stop offset="1" stop-color="#B9EBFF"/>
</linearGradient>
<linearGradient id="paint37_linear" x1="86.2874" y1="102.19" x2="78.2755" y2="108.235" gradientUnits="userSpaceOnUse">
<stop stop-color="white"/>
<stop offset="1" stop-color="#B9EBFF"/>
</linearGradient>
<linearGradient id="paint38_linear" x1="93.0807" y1="85.0714" x2="108.351" y2="113.401" gradientUnits="userSpaceOnUse">
<stop stop-color="white"/>
<stop offset="1" stop-color="#B9EBFF"/>
</linearGradient>
<linearGradient id="paint39_linear" x1="94.5192" y1="107.507" x2="86.5072" y2="113.551" gradientUnits="userSpaceOnUse">
<stop stop-color="white"/>
<stop offset="1" stop-color="#B9EBFF"/>
</linearGradient>
<linearGradient id="paint40_linear" x1="101.313" y1="90.3869" x2="116.583" y2="118.716" gradientUnits="userSpaceOnUse">
<stop stop-color="white"/>
<stop offset="1" stop-color="#B9EBFF"/>
</linearGradient>
<linearGradient id="paint41_linear" x1="102.751" y1="112.823" x2="94.7391" y2="118.867" gradientUnits="userSpaceOnUse">
<stop stop-color="white"/>
<stop offset="1" stop-color="#B9EBFF"/>
</linearGradient>
<linearGradient id="paint42_linear" x1="130.583" y1="103.564" x2="141.966" y2="107.245" gradientUnits="userSpaceOnUse">
<stop stop-color="white"/>
<stop offset="1" stop-color="#B9EBFF"/>
</linearGradient>
<linearGradient id="paint43_linear" x1="132.022" y1="100.749" x2="128.586" y2="115.623" gradientUnits="userSpaceOnUse">
<stop stop-color="white"/>
<stop offset="1" stop-color="#B9EBFF"/>
</linearGradient>
<linearGradient id="paint44_linear" x1="139.316" y1="106.363" x2="123.601" y2="95.2108" gradientUnits="userSpaceOnUse">
<stop stop-color="#2095F2"/>
<stop offset="1" stop-color="#5EDBD5"/>
</linearGradient>
<linearGradient id="paint45_linear" x1="147.547" y1="101.456" x2="131.833" y2="90.3041" gradientUnits="userSpaceOnUse">
<stop stop-color="#2095F2"/>
<stop offset="1" stop-color="#5EDBD5"/>
</linearGradient>
<linearGradient id="paint46_linear" x1="155.779" y1="96.9582" x2="140.065" y2="85.8064" gradientUnits="userSpaceOnUse">
<stop stop-color="#2095F2"/>
<stop offset="1" stop-color="#5EDBD5"/>
</linearGradient>
<linearGradient id="paint47_linear" x1="164.011" y1="92.051" x2="148.297" y2="80.8992" gradientUnits="userSpaceOnUse">
<stop stop-color="#2095F2"/>
<stop offset="1" stop-color="#5EDBD5"/>
</linearGradient>
<linearGradient id="paint48_linear" x1="136.238" y1="76.6347" x2="170.704" y2="-9.73749" gradientUnits="userSpaceOnUse">
<stop stop-color="#277AFF"/>
<stop offset="1" stop-color="#B9EBFF"/>
</linearGradient>
<linearGradient id="paint49_linear" x1="151.705" y1="49.5786" x2="151.705" y2="69.0279" gradientUnits="userSpaceOnUse">
<stop stop-color="white"/>
<stop offset="1" stop-color="#B9EBFF"/>
</linearGradient>
<linearGradient id="paint50_linear" x1="71.1938" y1="120.218" x2="156.743" y2="37.3566" gradientUnits="userSpaceOnUse">
<stop stop-color="white"/>
<stop offset="1" stop-color="#B9EBFF"/>
</linearGradient>
<linearGradient id="paint51_linear" x1="110.375" y1="50.1504" x2="110.375" y2="87.3865" gradientUnits="userSpaceOnUse">
<stop stop-color="white"/>
<stop offset="1" stop-color="#B9EBFF"/>
</linearGradient>
<linearGradient id="paint52_linear" x1="127.182" y1="76.6094" x2="115.851" y2="130.612" gradientUnits="userSpaceOnUse">
<stop stop-color="white"/>
<stop offset="1" stop-color="#B9EBFF"/>
</linearGradient>
<linearGradient id="paint53_linear" x1="95.3976" y1="79.8369" x2="85.156" y2="133.949" gradientUnits="userSpaceOnUse">
<stop stop-color="white"/>
<stop offset="1" stop-color="#B9EBFF"/>
</linearGradient>
<linearGradient id="paint54_linear" x1="3.77255" y1="88.5228" x2="100.726" y2="-92.7137" gradientUnits="userSpaceOnUse">
<stop stop-color="#277AFF"/>
<stop offset="1" stop-color="#B9EBFF"/>
</linearGradient>
<linearGradient id="paint55_linear" x1="107.067" y1="30.4385" x2="107.067" y2="194.872" gradientUnits="userSpaceOnUse">
<stop stop-color="white"/>
<stop offset="1" stop-color="#B9EBFF"/>
</linearGradient>
<linearGradient id="paint56_linear" x1="107.113" y1="30.606" x2="107.113" y2="195.039" gradientUnits="userSpaceOnUse">
<stop stop-color="white"/>
<stop offset="1" stop-color="#B9EBFF"/>
</linearGradient>
<linearGradient id="paint57_linear" x1="61.0633" y1="173.388" x2="61.0633" y2="35.7119" gradientUnits="userSpaceOnUse">
<stop stop-color="white"/>
<stop offset="1" stop-color="#B9EBFF"/>
</linearGradient>
<linearGradient id="paint58_linear" x1="68.3506" y1="48.0752" x2="68.3506" y2="194.475" gradientUnits="userSpaceOnUse">
<stop stop-color="white"/>
<stop offset="1" stop-color="#97E1FF"/>
</linearGradient>
<linearGradient id="paint59_linear" x1="66.7187" y1="180.03" x2="157.591" y2="151.675" gradientUnits="userSpaceOnUse">
<stop stop-color="#328AF5"/>
<stop offset="1" stop-color="#B9EBFF"/>
<stop offset="1" stop-color="#5EDBD5"/>
</linearGradient>
<linearGradient id="paint60_linear" x1="100.261" y1="87.3414" x2="45.9025" y2="87.4323" gradientUnits="userSpaceOnUse">
<stop stop-color="white"/>
<stop offset="1" stop-color="#9FE2FD"/>
</linearGradient>
<linearGradient id="paint61_linear" x1="33.5003" y1="27.2646" x2="33.5003" y2="173.215" gradientUnits="userSpaceOnUse">
<stop stop-color="white"/>
<stop offset="1" stop-color="#B9EBFF"/>
</linearGradient>
<linearGradient id="paint62_linear" x1="97.4607" y1="2.15869" x2="97.4607" y2="36.8085" gradientUnits="userSpaceOnUse">
<stop stop-color="white"/>
<stop offset="1" stop-color="#B9EBFF"/>
</linearGradient>
<linearGradient id="paint63_linear" x1="53.6513" y1="2.15967" x2="53.6513" y2="33.7446" gradientUnits="userSpaceOnUse">
<stop stop-color="white"/>
<stop offset="1" stop-color="#B9EBFF"/>
</linearGradient>
<linearGradient id="paint64_linear" x1="31.507" y1="159.569" x2="103.109" y2="141.966" gradientUnits="userSpaceOnUse">
<stop stop-color="#4265ED"/>
<stop offset="1" stop-color="#5EDBD5"/>
</linearGradient>
<linearGradient id="paint65_linear" x1="75.5697" y1="35.1477" x2="91.166" y2="103.996" gradientUnits="userSpaceOnUse">
<stop stop-color="white"/>
<stop offset="1" stop-color="#B9EBFF"/>
</linearGradient>
<linearGradient id="paint66_linear" x1="196.013" y1="57.1766" x2="210.761" y2="77.5545" gradientUnits="userSpaceOnUse">
<stop stop-color="#3DB9FF"/>
<stop offset="1" stop-color="#277AFF"/>
</linearGradient>
<linearGradient id="paint67_linear" x1="314.516" y1="128.601" x2="278.982" y2="32.9736" gradientUnits="userSpaceOnUse">
<stop stop-color="#2095F2"/>
<stop offset="1" stop-color="#5EDBD5"/>
</linearGradient>
<linearGradient id="paint68_linear" x1="275.312" y1="109.736" x2="268.99" y2="103.755" gradientUnits="userSpaceOnUse">
<stop stop-color="#189FEB"/>
<stop offset="1" stop-color="#5EDBD5"/>
</linearGradient>
<linearGradient id="paint69_linear" x1="272.781" y1="106.678" x2="272.781" y2="110.895" gradientUnits="userSpaceOnUse">
<stop stop-color="white"/>
<stop offset="1" stop-color="#B9EBFF"/>
</linearGradient>
<linearGradient id="paint70_linear" x1="283.388" y1="113.51" x2="277.066" y2="107.529" gradientUnits="userSpaceOnUse">
<stop stop-color="#189FEB"/>
<stop offset="1" stop-color="#5EDBD5"/>
</linearGradient>
<linearGradient id="paint71_linear" x1="280.81" y1="110.508" x2="280.81" y2="114.726" gradientUnits="userSpaceOnUse">
<stop stop-color="white"/>
<stop offset="1" stop-color="#B9EBFF"/>
</linearGradient>
<linearGradient id="paint72_linear" x1="308.31" y1="80.2734" x2="308.31" y2="119.877" gradientUnits="userSpaceOnUse">
<stop stop-color="white"/>
<stop offset="1" stop-color="#B9EBFF"/>
</linearGradient>
<linearGradient id="paint73_linear" x1="314.516" y1="114.248" x2="278.982" y2="18.6215" gradientUnits="userSpaceOnUse">
<stop stop-color="#2095F2"/>
<stop offset="1" stop-color="#5EDBD5"/>
</linearGradient>
<linearGradient id="paint74_linear" x1="275.312" y1="95.3838" x2="268.99" y2="89.4026" gradientUnits="userSpaceOnUse">
<stop stop-color="#189FEB"/>
<stop offset="1" stop-color="#5EDBD5"/>
</linearGradient>
<linearGradient id="paint75_linear" x1="272.781" y1="92.3271" x2="272.781" y2="96.5444" gradientUnits="userSpaceOnUse">
<stop stop-color="white"/>
<stop offset="1" stop-color="#B9EBFF"/>
</linearGradient>
<linearGradient id="paint76_linear" x1="283.388" y1="99.1583" x2="277.066" y2="93.177" gradientUnits="userSpaceOnUse">
<stop stop-color="#189FEB"/>
<stop offset="1" stop-color="#5EDBD5"/>
</linearGradient>
<linearGradient id="paint77_linear" x1="280.81" y1="96.1572" x2="280.81" y2="100.375" gradientUnits="userSpaceOnUse">
<stop stop-color="white"/>
<stop offset="1" stop-color="#B9EBFF"/>
</linearGradient>
<linearGradient id="paint78_linear" x1="308.31" y1="65.9219" x2="308.31" y2="105.526" gradientUnits="userSpaceOnUse">
<stop stop-color="white"/>
<stop offset="1" stop-color="#B9EBFF"/>
</linearGradient>
<linearGradient id="paint79_linear" x1="176.986" y1="242.088" x2="155.614" y2="209.795" gradientUnits="userSpaceOnUse">
<stop stop-color="#2095F2"/>
<stop offset="1" stop-color="#2095F2"/>
</linearGradient>
<linearGradient id="paint80_linear" x1="330.986" y1="216.588" x2="352.672" y2="179.024" gradientUnits="userSpaceOnUse">
<stop stop-color="#3DB9FF"/>
<stop offset="1" stop-color="#C0FFFC"/>
</linearGradient>
<clipPath id="clip0">
<rect width="400" height="300" fill="white"/>
</clipPath>
</defs>
</svg>
